<svg width="572" height="406" viewBox="0 0 572 406" fill="none" xmlns="http://www.w3.org/2000/svg">
<rect x="1.5" y="1.5" width="97" height="97" rx="48.5" fill="black" fill-opacity="0.01"/>
<rect x="1.5" y="1.5" width="97" height="97" rx="48.5" stroke="#D5D5D5" stroke-width="3"/>
<path d="M40.6253 37.5001C42.0736 37.5007 43.4888 37.9326 44.6906 38.7406C45.8925 39.5486 46.8265 40.6963 47.3736 42.0372C47.9207 43.3781 48.0561 44.8516 47.7625 46.2697C47.469 47.6879 46.7598 48.9865 45.7253 50.0001H46.8753C47.7041 50.0001 48.499 50.3293 49.085 50.9154C49.6711 51.5014 50.0003 52.2963 50.0003 53.1251C50.0003 53.9539 49.6711 54.7487 49.085 55.3348C48.499 55.9208 47.7041 56.2501 46.8753 56.2501H46.1045C46.8962 59.9813 49.2253 62.4917 50.5587 63.6626C51.4274 64.4251 52.0837 65.573 52.0837 66.8959C52.0837 67.413 51.9818 67.925 51.7839 68.4027C51.5861 68.8804 51.296 69.3145 50.9304 69.6801C50.5648 70.0458 50.1307 70.3358 49.653 70.5337C49.1753 70.7316 48.6632 70.8334 48.1462 70.8334H33.1045C32.5874 70.8334 32.0754 70.7316 31.5977 70.5337C31.12 70.3358 30.6859 70.0458 30.3203 69.6801C29.9546 69.3145 29.6646 68.8804 29.4667 68.4027C29.2688 67.925 29.167 67.413 29.167 66.8959C29.167 65.573 29.8232 64.4251 30.692 63.6626C32.0253 62.4917 34.3545 59.9813 35.1441 56.2501H34.3753C33.5465 56.2501 32.7517 55.9208 32.1656 55.3348C31.5796 54.7487 31.2503 53.9539 31.2503 53.1251C31.2503 52.2963 31.5796 51.5014 32.1656 50.9154C32.7517 50.3293 33.5465 50.0001 34.3753 50.0001H35.5253C34.4909 48.9865 33.7817 47.6879 33.4881 46.2697C33.1946 44.8516 33.33 43.3781 33.8771 42.0372C34.4242 40.6963 35.3582 39.5486 36.56 38.7406C37.7619 37.9326 39.1771 37.5007 40.6253 37.5001ZM52.0837 29.1667C52.6362 29.1667 53.1661 29.3862 53.5568 29.7769C53.9475 30.1676 54.167 30.6975 54.167 31.2501V33.8542C54.167 34.2686 54.3316 34.6661 54.6246 34.9591C54.9177 35.2521 55.3151 35.4167 55.7295 35.4167C56.1439 35.4167 56.5413 35.2521 56.8343 34.9591C57.1274 34.6661 57.292 34.2686 57.292 33.8542V31.2501C57.292 30.6975 57.5115 30.1676 57.9022 29.7769C58.2929 29.3862 58.8228 29.1667 59.3753 29.1667C59.9279 29.1667 60.4578 29.3862 60.8485 29.7769C61.2392 30.1676 61.4587 30.6975 61.4587 31.2501V33.8542C61.4587 34.2686 61.6233 34.6661 61.9163 34.9591C62.2093 35.2521 62.6068 35.4167 63.0212 35.4167C63.4356 35.4167 63.833 35.2521 64.126 34.9591C64.419 34.6661 64.5837 34.2686 64.5837 33.8542V31.2501C64.5837 30.6975 64.8031 30.1676 65.1938 29.7769C65.5845 29.3862 66.1145 29.1667 66.667 29.1667H67.1878C67.6022 29.1667 67.9996 29.3314 68.2927 29.6244C68.5857 29.9174 68.7503 30.3148 68.7503 30.7292V39.5834C68.7503 40.6885 68.3113 41.7483 67.5299 42.5297C66.7485 43.3111 65.6887 43.7501 64.5837 43.7501H64.1253C64.667 55.1126 68.6316 61.9292 70.0128 63.9834C70.5045 64.7126 70.8337 65.6084 70.8337 66.5813C70.8337 68.9292 68.9295 70.8313 66.5816 70.8334H52.6941C53.6107 69.7772 54.167 68.4042 54.167 66.8959C54.167 64.8688 53.167 63.1813 51.9316 62.098C51.4472 61.6717 50.9965 61.2085 50.5837 60.7126C52.2441 57.273 54.2503 51.5938 54.6253 43.7501H54.167C53.0619 43.7501 52.0021 43.3111 51.2207 42.5297C50.4393 41.7483 50.0003 40.6885 50.0003 39.5834V30.7292C50.0003 30.3148 50.1649 29.9174 50.458 29.6244C50.751 29.3314 51.1484 29.1667 51.5628 29.1667H52.0837Z" fill="#D5D5D5"/>
<path d="M131.416 44.192C130.152 44.192 128.928 44 127.744 43.616C126.576 43.216 125.656 42.704 124.984 42.08L125.872 40.208C126.512 40.784 127.328 41.256 128.32 41.624C129.328 41.976 130.36 42.152 131.416 42.152C132.808 42.152 133.848 41.92 134.536 41.456C135.224 40.976 135.568 40.344 135.568 39.56C135.568 38.984 135.376 38.52 134.992 38.168C134.624 37.8 134.16 37.52 133.6 37.328C133.056 37.136 132.28 36.92 131.272 36.68C130.008 36.376 128.984 36.072 128.2 35.768C127.432 35.464 126.768 35 126.208 34.376C125.664 33.736 125.392 32.88 125.392 31.808C125.392 30.912 125.624 30.104 126.088 29.384C126.568 28.664 127.288 28.088 128.248 27.656C129.208 27.224 130.4 27.008 131.824 27.008C132.816 27.008 133.792 27.136 134.752 27.392C135.712 27.648 136.536 28.016 137.224 28.496L136.432 30.416C135.728 29.968 134.976 29.632 134.176 29.408C133.376 29.168 132.592 29.048 131.824 29.048C130.464 29.048 129.44 29.296 128.752 29.792C128.08 30.288 127.744 30.928 127.744 31.712C127.744 32.288 127.936 32.76 128.32 33.128C128.704 33.48 129.176 33.76 129.736 33.968C130.312 34.16 131.088 34.368 132.064 34.592C133.328 34.896 134.344 35.2 135.112 35.504C135.88 35.808 136.536 36.272 137.08 36.896C137.64 37.52 137.92 38.36 137.92 39.416C137.92 40.296 137.68 41.104 137.2 41.84C136.72 42.56 135.992 43.136 135.016 43.568C134.04 43.984 132.84 44.192 131.416 44.192ZM144.528 29.288H138.768V27.2H152.664V29.288H146.904V44H144.528V29.288ZM166.51 44L162.886 38.84C162.438 38.872 162.086 38.888 161.83 38.888H157.678V44H155.278V27.2H161.83C164.006 27.2 165.718 27.72 166.966 28.76C168.214 29.8 168.838 31.232 168.838 33.056C168.838 34.352 168.518 35.456 167.878 36.368C167.238 37.28 166.326 37.944 165.142 38.36L169.126 44H166.51ZM161.758 36.848C163.278 36.848 164.438 36.52 165.238 35.864C166.038 35.208 166.438 34.272 166.438 33.056C166.438 31.84 166.038 30.912 165.238 30.272C164.438 29.616 163.278 29.288 161.758 29.288H157.678V36.848H161.758ZM183.419 39.8H174.491L172.643 44H170.171L177.779 27.2H180.155L187.787 44H185.267L183.419 39.8ZM182.579 37.88L178.955 29.648L175.331 37.88H182.579ZM192.786 29.288H187.026V27.2H200.922V29.288H195.162V44H192.786V29.288ZM215.728 41.912V44H203.536V27.2H215.392V29.288H205.936V34.448H214.36V36.488H205.936V41.912H215.728ZM231.183 35.504H233.487V42.056C232.655 42.744 231.687 43.272 230.583 43.64C229.479 44.008 228.327 44.192 227.127 44.192C225.431 44.192 223.903 43.824 222.543 43.088C221.183 42.336 220.111 41.312 219.327 40.016C218.559 38.704 218.175 37.232 218.175 35.6C218.175 33.968 218.559 32.496 219.327 31.184C220.111 29.872 221.183 28.848 222.543 28.112C223.919 27.376 225.463 27.008 227.175 27.008C228.519 27.008 229.735 27.232 230.823 27.68C231.927 28.112 232.863 28.752 233.631 29.6L232.143 31.088C230.799 29.792 229.175 29.144 227.271 29.144C225.991 29.144 224.839 29.424 223.815 29.984C222.807 30.528 222.015 31.296 221.439 32.288C220.863 33.264 220.575 34.368 220.575 35.6C220.575 36.816 220.863 37.92 221.439 38.912C222.015 39.888 222.807 40.656 223.815 41.216C224.839 41.776 225.983 42.056 227.247 42.056C228.751 42.056 230.063 41.696 231.183 40.976V35.504ZM238.083 27.2H240.483V44H238.083V27.2ZM253.024 44.192C251.344 44.192 249.824 43.824 248.464 43.088C247.12 42.336 246.064 41.312 245.296 40.016C244.528 38.704 244.144 37.232 244.144 35.6C244.144 33.968 244.528 32.504 245.296 31.208C246.064 29.896 247.128 28.872 248.488 28.136C249.848 27.384 251.368 27.008 253.048 27.008C254.36 27.008 255.56 27.232 256.648 27.68C257.736 28.112 258.664 28.76 259.432 29.624L257.872 31.136C256.608 29.808 255.032 29.144 253.144 29.144C251.896 29.144 250.768 29.424 249.76 29.984C248.752 30.544 247.96 31.32 247.384 32.312C246.824 33.288 246.544 34.384 246.544 35.6C246.544 36.816 246.824 37.92 247.384 38.912C247.96 39.888 248.752 40.656 249.76 41.216C250.768 41.776 251.896 42.056 253.144 42.056C255.016 42.056 256.592 41.384 257.872 40.04L259.432 41.552C258.664 42.416 257.728 43.072 256.624 43.52C255.536 43.968 254.336 44.192 253.024 44.192ZM133.072 56.2C135.248 56.2 136.96 56.72 138.208 57.76C139.456 58.8 140.08 60.232 140.08 62.056C140.08 63.88 139.456 65.312 138.208 66.352C136.96 67.392 135.248 67.912 133.072 67.912H128.92V73H126.52V56.2H133.072ZM133 65.824C134.52 65.824 135.68 65.504 136.48 64.864C137.28 64.208 137.68 63.272 137.68 62.056C137.68 60.84 137.28 59.912 136.48 59.272C135.68 58.616 134.52 58.288 133 58.288H128.92V65.824H133ZM151.424 73.192C149.728 73.192 148.2 72.824 146.84 72.088C145.48 71.336 144.408 70.304 143.624 68.992C142.856 67.68 142.472 66.216 142.472 64.6C142.472 62.984 142.856 61.52 143.624 60.208C144.408 58.896 145.48 57.872 146.84 57.136C148.2 56.384 149.728 56.008 151.424 56.008C153.104 56.008 154.624 56.384 155.984 57.136C157.344 57.872 158.408 58.896 159.176 60.208C159.944 61.504 160.328 62.968 160.328 64.6C160.328 66.232 159.944 67.704 159.176 69.016C158.408 70.312 157.344 71.336 155.984 72.088C154.624 72.824 153.104 73.192 151.424 73.192ZM151.424 71.056C152.656 71.056 153.76 70.776 154.736 70.216C155.728 69.656 156.504 68.888 157.064 67.912C157.64 66.92 157.928 65.816 157.928 64.6C157.928 63.384 157.64 62.288 157.064 61.312C156.504 60.32 155.728 59.544 154.736 58.984C153.76 58.424 152.656 58.144 151.424 58.144C150.192 58.144 149.072 58.424 148.064 58.984C147.072 59.544 146.288 60.32 145.712 61.312C145.152 62.288 144.872 63.384 144.872 64.6C144.872 65.816 145.152 66.92 145.712 67.912C146.288 68.888 147.072 69.656 148.064 70.216C149.072 70.776 150.192 71.056 151.424 71.056ZM168.893 73.192C167.629 73.192 166.405 73 165.221 72.616C164.053 72.216 163.133 71.704 162.461 71.08L163.349 69.208C163.989 69.784 164.805 70.256 165.797 70.624C166.805 70.976 167.837 71.152 168.893 71.152C170.285 71.152 171.325 70.92 172.013 70.456C172.701 69.976 173.045 69.344 173.045 68.56C173.045 67.984 172.853 67.52 172.469 67.168C172.101 66.8 171.637 66.52 171.077 66.328C170.533 66.136 169.757 65.92 168.749 65.68C167.485 65.376 166.461 65.072 165.677 64.768C164.909 64.464 164.245 64 163.685 63.376C163.141 62.736 162.869 61.88 162.869 60.808C162.869 59.912 163.101 59.104 163.565 58.384C164.045 57.664 164.765 57.088 165.725 56.656C166.685 56.224 167.877 56.008 169.301 56.008C170.293 56.008 171.269 56.136 172.229 56.392C173.189 56.648 174.013 57.016 174.701 57.496L173.909 59.416C173.205 58.968 172.453 58.632 171.653 58.408C170.853 58.168 170.069 58.048 169.301 58.048C167.941 58.048 166.917 58.296 166.229 58.792C165.557 59.288 165.221 59.928 165.221 60.712C165.221 61.288 165.413 61.76 165.797 62.128C166.181 62.48 166.653 62.76 167.213 62.968C167.789 63.16 168.565 63.368 169.541 63.592C170.805 63.896 171.821 64.2 172.589 64.504C173.357 64.808 174.013 65.272 174.557 65.896C175.117 66.52 175.397 67.36 175.397 68.416C175.397 69.296 175.157 70.104 174.677 70.84C174.197 71.56 173.469 72.136 172.493 72.568C171.517 72.984 170.317 73.192 168.893 73.192ZM178.903 56.2H181.303V73H178.903V56.2ZM189.669 58.288H183.909V56.2H197.805V58.288H192.045V73H189.669V58.288ZM200.418 56.2H202.818V73H200.418V56.2ZM215.432 73.192C213.736 73.192 212.208 72.824 210.848 72.088C209.488 71.336 208.416 70.304 207.632 68.992C206.864 67.68 206.48 66.216 206.48 64.6C206.48 62.984 206.864 61.52 207.632 60.208C208.416 58.896 209.488 57.872 210.848 57.136C212.208 56.384 213.736 56.008 215.432 56.008C217.112 56.008 218.632 56.384 219.992 57.136C221.352 57.872 222.416 58.896 223.184 60.208C223.952 61.504 224.336 62.968 224.336 64.6C224.336 66.232 223.952 67.704 223.184 69.016C222.416 70.312 221.352 71.336 219.992 72.088C218.632 72.824 217.112 73.192 215.432 73.192ZM215.432 71.056C216.664 71.056 217.768 70.776 218.744 70.216C219.736 69.656 220.512 68.888 221.072 67.912C221.648 66.92 221.936 65.816 221.936 64.6C221.936 63.384 221.648 62.288 221.072 61.312C220.512 60.32 219.736 59.544 218.744 58.984C217.768 58.424 216.664 58.144 215.432 58.144C214.2 58.144 213.08 58.424 212.072 58.984C211.08 59.544 210.296 60.32 209.72 61.312C209.16 62.288 208.88 63.384 208.88 64.6C208.88 65.816 209.16 66.92 209.72 67.912C210.296 68.888 211.08 69.656 212.072 70.216C213.08 70.776 214.2 71.056 215.432 71.056ZM242.452 56.2V73H240.484L230.404 60.472V73H228.004V56.2H229.972L240.052 68.728V56.2H242.452ZM247.481 56.2H249.881V73H247.481V56.2ZM269.359 56.2V73H267.391L257.311 60.472V73H254.911V56.2H256.879L266.959 68.728V56.2H269.359ZM286.027 64.504H288.331V71.056C287.499 71.744 286.531 72.272 285.427 72.64C284.323 73.008 283.171 73.192 281.971 73.192C280.275 73.192 278.747 72.824 277.387 72.088C276.027 71.336 274.955 70.312 274.171 69.016C273.403 67.704 273.019 66.232 273.019 64.6C273.019 62.968 273.403 61.496 274.171 60.184C274.955 58.872 276.027 57.848 277.387 57.112C278.763 56.376 280.307 56.008 282.019 56.008C283.363 56.008 284.579 56.232 285.667 56.68C286.771 57.112 287.707 57.752 288.475 58.6L286.987 60.088C285.643 58.792 284.019 58.144 282.115 58.144C280.835 58.144 279.683 58.424 278.659 58.984C277.651 59.528 276.859 60.296 276.283 61.288C275.707 62.264 275.419 63.368 275.419 64.6C275.419 65.816 275.707 66.92 276.283 67.912C276.859 68.888 277.651 69.656 278.659 70.216C279.683 70.776 280.827 71.056 282.091 71.056C283.595 71.056 284.907 70.696 286.027 69.976V64.504Z" fill="#D5D5D5"/>
<path d="M296.858 391.764L334.889 310.574C336.32 307.519 339.988 306.244 343.006 307.753L383.461 327.981C384.147 328.324 384.893 328.532 385.658 328.594L427.5 332H462H498L559.801 329.057C564.686 328.824 567.782 334.22 565.117 338.32L559.404 347.11C558.812 348.019 557.985 348.752 557.01 349.229L535 360L457.99 404.637C457.016 405.201 455.904 405.48 454.779 405.442L302.09 400.306C297.786 400.161 295.031 395.664 296.858 391.764Z" fill="#D9D9D9" fill-opacity="0.2" stroke="white"/>
<path d="M406.333 372C406.333 373.473 407.527 374.667 409 374.667C410.473 374.667 411.667 373.473 411.667 372C411.667 370.527 410.473 369.333 409 369.333C407.527 369.333 406.333 370.527 406.333 372ZM309.5 38.5L304.5 36.1132V41.8868L309.5 39.5V38.5ZM409 372H409.5V45H409H408.5V372H409ZM403 39V38.5H309V39V39.5H403V39ZM409 45H409.5C409.5 41.4101 406.59 38.5 403 38.5V39V39.5C406.038 39.5 408.5 41.9624 408.5 45H409Z" fill="white"/>
</svg>
