<svg width="38" height="38" viewBox="0 0 38 38" fill="none" xmlns="http://www.w3.org/2000/svg">
<path d="M24.5001 14.7811L31.1508 10.6225L19.516 3.34874C19.0176 3.03724 18.3634 3.03724 17.865 3.34874L6.23015 10.6225L12.8809 14.7811C14.1425 12.912 16.2763 11.6816 18.6905 11.6816C21.1047 11.6816 23.2385 12.912 24.5001 14.7811ZM25.6994 18.6905C25.6994 22.0237 23.3631 24.7961 20.248 25.5126V33.5806L31.9763 26.2446C32.428 25.9642 32.7084 25.4658 32.7084 24.9207V13.317L25.606 17.756C25.6527 18.0675 25.6994 18.3634 25.6994 18.6905ZM11.6815 18.6905C11.6815 18.379 11.7283 18.0675 11.775 17.756L4.67261 13.317V24.9207C4.67261 25.4503 4.95296 25.9642 5.40465 26.2446L17.1329 33.5806V25.5126C14.0179 24.7961 11.6815 22.0237 11.6815 18.6905Z" fill="#D5D5D5"/>
</svg>
