<svg width="47" height="47" viewBox="0 0 47 47" fill="none" xmlns="http://www.w3.org/2000/svg">
<g clip-path="url(#clip0_848_322)">
<path d="M35.6287 14.0179H24.5312V18.1064C24.5312 21.0049 22.173 23.3631 19.2745 23.3631C16.376 23.3631 14.0178 21.0049 14.0178 18.1064V9.22844L9.2795 12.0758C7.87041 12.9154 7.00889 14.4413 7.00889 16.0768V19.5301L1.16811 22.9032C0.051063 23.5457 -0.335889 24.9766 0.313898 26.0937L6.15468 36.2128C6.79716 37.3299 8.22816 37.7095 9.3452 37.0671L16.8944 32.7084H26.8675C29.4448 32.7084 31.5402 30.613 31.5402 28.0358H32.7083C34.0006 28.0358 35.0446 26.9917 35.0446 25.6994V21.0268H35.6287C36.5997 21.0268 37.381 20.2456 37.381 19.2746V15.7701C37.381 14.7991 36.5997 14.0179 35.6287 14.0179ZM46.4123 11.2873L40.5715 1.16816C39.929 0.0511144 38.498 -0.328536 37.381 0.31395L29.8317 4.67263H22.3701C21.494 4.67263 20.6398 4.92087 19.8951 5.38083L17.4493 6.90673C16.763 7.33019 16.3541 8.08219 16.3541 8.8853V18.1064C16.3541 19.7199 17.661 21.0268 19.2745 21.0268C20.888 21.0268 22.1949 19.7199 22.1949 18.1064V11.6816H35.6287C37.8847 11.6816 39.7173 13.5141 39.7173 15.7701V17.8509L45.558 14.4778C46.6751 13.8281 47.0547 12.4044 46.4123 11.2873Z" fill="#D5D5D5"/>
</g>
<defs>
<clipPath id="clip0_848_322">
<rect width="46.7262" height="46.7262" fill="white"/>
</clipPath>
</defs>
</svg>
