<svg width="38" height="38" viewBox="0 0 38 38" fill="none" xmlns="http://www.w3.org/2000/svg">
<path d="M11.6818 9.34531C12.7646 9.34577 13.8226 9.66863 14.7211 10.2727C15.6197 10.8769 16.3179 11.7348 16.727 12.7373C17.136 13.7398 17.2372 14.8414 17.0177 15.9017C16.7983 16.9619 16.2681 17.9328 15.4947 18.6906H16.3545C16.9741 18.6906 17.5683 18.9367 18.0065 19.3748C18.4446 19.813 18.6908 20.4072 18.6908 21.0269C18.6908 21.6465 18.4446 22.2407 18.0065 22.6789C17.5683 23.117 16.9741 23.3632 16.3545 23.3632H15.7782C16.37 26.1527 18.1114 28.0296 19.1082 28.9049C19.7577 29.475 20.2483 30.3332 20.2483 31.3222C20.2483 31.7088 20.1722 32.0916 20.0242 32.4487C19.8763 32.8059 19.6595 33.1304 19.3861 33.4038C19.1128 33.6771 18.7882 33.8939 18.4311 34.0419C18.0739 34.1898 17.6911 34.266 17.3046 34.266H6.05911C5.67253 34.266 5.28974 34.1898 4.93258 34.0419C4.57543 33.8939 4.25091 33.6771 3.97756 33.4038C3.70421 33.1304 3.48737 32.8059 3.33944 32.4487C3.1915 32.0916 3.11536 31.7088 3.11536 31.3222C3.11536 30.3332 3.60598 29.475 4.25548 28.9049C5.2523 28.0296 6.99363 26.1527 7.58394 23.3632H7.00921C6.38958 23.3632 5.79533 23.117 5.35719 22.6789C4.91904 22.2407 4.6729 21.6465 4.6729 21.0269C4.6729 20.4072 4.91904 19.813 5.35719 19.3748C5.79533 18.9367 6.38958 18.6906 7.00921 18.6906H7.86897C7.0956 17.9328 6.56538 16.9619 6.34592 15.9017C6.12646 14.8414 6.22769 13.7398 6.6367 12.7373C7.04572 11.7348 7.744 10.8769 8.64252 10.2727C9.54104 9.66863 10.5991 9.34577 11.6818 9.34531ZM20.2483 3.11514C20.6614 3.11514 21.0576 3.27924 21.3497 3.57134C21.6418 3.86343 21.8059 4.2596 21.8059 4.67268V6.61961C21.8059 6.92942 21.9289 7.22655 22.148 7.44562C22.3671 7.66469 22.6642 7.78777 22.974 7.78777C23.2838 7.78777 23.5809 7.66469 23.8 7.44562C24.0191 7.22655 24.1422 6.92942 24.1422 6.61961V4.67268C24.1422 4.2596 24.3063 3.86343 24.5984 3.57134C24.8905 3.27924 25.2866 3.11514 25.6997 3.11514C26.1128 3.11514 26.509 3.27924 26.8011 3.57134C27.0931 3.86343 27.2572 4.2596 27.2572 4.67268V6.61961C27.2572 6.92942 27.3803 7.22655 27.5994 7.44562C27.8185 7.66469 28.1156 7.78777 28.4254 7.78777C28.7352 7.78777 29.0323 7.66469 29.2514 7.44562C29.4705 7.22655 29.5936 6.92942 29.5936 6.61961V4.67268C29.5936 4.2596 29.7577 3.86343 30.0497 3.57134C30.3418 3.27924 30.738 3.11514 31.1511 3.11514H31.5405C31.8503 3.11514 32.1474 3.23822 32.3665 3.45729C32.5856 3.67636 32.7086 3.97348 32.7086 4.2833V10.9028C32.7086 11.729 32.3804 12.5214 31.7963 13.1055C31.2121 13.6897 30.4197 14.0179 29.5936 14.0179H29.2509C29.6559 22.5128 32.6199 27.609 33.6525 29.1448C34.0201 29.6899 34.2662 30.3597 34.2662 31.087C34.2662 32.8424 32.8426 34.2644 31.0872 34.266H20.7047C21.39 33.4763 21.8059 32.4499 21.8059 31.3222C21.8059 29.8067 21.0582 28.5451 20.1346 27.7352C19.7725 27.4165 19.4356 27.0702 19.1269 26.6994C20.3682 24.1279 21.8682 19.8821 22.1485 14.0179H21.8059C20.9797 14.0179 20.1873 13.6897 19.6032 13.1055C19.019 12.5214 18.6908 11.729 18.6908 10.9028V4.2833C18.6908 3.97348 18.8138 3.67636 19.0329 3.45729C19.252 3.23822 19.5491 3.11514 19.8589 3.11514H20.2483Z" fill="#D5D5D5"/>
</svg>
