<svg width="38" height="38" viewBox="0 0 38 38" fill="none" xmlns="http://www.w3.org/2000/svg">
<path fill-rule="evenodd" clip-rule="evenodd" d="M34.2659 12.9167C34.2659 18.3307 29.8581 22.7199 24.4222 22.7199C23.4316 22.7199 21.1732 22.4925 20.0751 21.5797L18.7014 22.9473C17.893 23.7525 18.1111 23.9893 18.4709 24.3786C18.6204 24.5422 18.7948 24.7306 18.9303 25.0001C18.9303 25.0001 20.0751 26.595 18.9303 28.1915C18.2435 29.1027 16.3199 30.3783 14.1238 28.1915L13.6659 28.6463C13.6659 28.6463 15.0381 30.2428 13.8948 31.8393C13.2079 32.7504 11.3763 33.6616 9.77356 32.0667L8.17241 33.6616C7.07279 34.7565 5.73019 34.1179 5.19751 33.6616L3.8222 32.2941C2.54034 31.0169 3.28796 29.6338 3.8222 29.1011L15.7249 17.2482C15.7249 17.2482 14.5801 15.4259 14.5801 12.9182C14.5801 7.50423 18.988 3.11508 24.4238 3.11508C29.8596 3.11508 34.2659 7.50423 34.2659 12.9167ZM24.4238 16.337C25.3323 16.3387 26.2043 15.9795 26.848 15.3384C27.4918 14.6973 27.8546 13.8268 27.8566 12.9182C27.8558 12.4683 27.7664 12.0228 27.5934 11.6074C27.4204 11.192 27.1674 10.8147 26.8486 10.4971C26.5298 10.1795 26.1516 9.92778 25.7356 9.75633C25.3195 9.58489 24.8738 9.49707 24.4238 9.49789C23.9738 9.49707 23.5281 9.58489 23.112 9.75633C22.696 9.92778 22.3178 10.1795 21.999 10.4971C21.6802 10.8147 21.4272 11.192 21.2542 11.6074C21.0812 12.0228 20.9918 12.4683 20.991 12.9182C20.993 13.8268 21.3558 14.6973 21.9996 15.3384C22.6433 15.9795 23.5153 16.3387 24.4238 16.337Z" fill="#D5D5D5"/>
</svg>
