<svg width="108" height="339" viewBox="0 0 108 339" fill="none" xmlns="http://www.w3.org/2000/svg">
<path d="M101.833 335.887C101.833 337.359 103.027 338.553 104.5 338.553C105.973 338.553 107.167 337.359 107.167 335.887C107.167 334.414 105.973 333.22 104.5 333.22C103.027 333.22 101.833 334.414 101.833 335.887ZM5 2.38675L0 -2.14577e-06V5.7735L5 3.38675V2.38675ZM104.5 335.887H105V8.88675H104.5H104V335.887H104.5ZM98.5 2.88675V2.38675H4.5V2.88675V3.38675H98.5V2.88675ZM104.5 8.88675H105C105 5.29689 102.09 2.38675 98.5 2.38675V2.88675V3.38675C101.538 3.38675 104 5.84918 104 8.88675H104.5Z" fill="white"/>
</svg>
