<svg width="50" height="50" viewBox="0 0 50 50" fill="none" xmlns="http://www.w3.org/2000/svg">
<path d="M6.65956 41.4728C-2.66398 32.6656 -2.06535 16.0463 7.62484 6.99219C17.7715 -2.48849 34.2934 -2.3538 42.3075 7.5534C39.6436 9.3343 37.0022 11.0927 34.3234 12.8811C27.125 8.78057 20.3081 8.5935 14.2845 14.5273C10.154 18.598 9.12139 23.6189 10.805 29.7473C17.4273 25.4447 23.6455 21.404 30.1929 17.1463C31.5847 19.1891 32.8193 20.985 34.3758 23.2597C24.9624 29.448 15.7736 35.4866 6.65956 41.4728Z" fill="white"/>
<path d="M39.9126 21.1572C42.6363 19.3838 45.2179 17.7077 47.7994 16.0315C52.2592 22.9232 49.7599 36.5343 41.9255 43.3811C33.238 50.9761 20.2703 52.2182 11.6352 45.7157C14.5011 43.83 17.2024 41.9444 20.0309 40.2607C20.7941 39.8043 21.924 39.7818 22.8668 39.8342C33.5747 40.4403 40.4514 33.6684 39.9201 23.0055C39.8976 22.5116 39.9201 22.0177 39.9201 21.1572H39.9126Z" fill="white"/>
</svg>
